<svg width="32" height="20" viewBox="0 0 32 20" fill="none" xmlns="http://www.w3.org/2000/svg">
<g clip-path="url(#clip0_268_1777)">
<path d="M32 2.3166V17.6834C32 18.9653 30.9506 20 29.6505 20H4.23691C2.93686 20 1.88742 18.9653 1.88742 17.6834V11.861L0 10L1.88742 8.139V2.3166C1.88742 1.03475 2.93686 0 4.23691 0H29.6505C30.9506 0 32 1.03475 32 2.3166Z" fill="#23BABC"/>
<path d="M32 2.3166V17.6834C32 18.9653 30.9506 20 29.6505 20H4.23691C2.93686 20 1.88742 18.9653 1.88742 17.6834V11.861L0 10L1.88742 8.139V2.3166C1.88742 1.03475 2.93686 0 4.23691 0H29.6505C30.9506 0 32 1.03475 32 2.3166Z" fill="black" fill-opacity="0.2"/>
<path d="M14.232 14H13.104V12.02H9.42V10.964L12.96 6.104H14.232V11.024H15.24L15.108 12.02H14.232V14ZM13.104 11.024V9.14C13.104 8.396 13.116 7.764 13.14 7.244C12.964 7.58 12.1 8.84 10.548 11.024H13.104ZM17.4585 14H16.2105V12.164H17.4585V14ZM24.0078 6.104L23.8398 7.112H20.5638C20.5238 7.536 20.4158 8.24 20.2398 9.224C20.6158 8.824 21.1518 8.624 21.8478 8.624C22.5758 8.624 23.1558 8.864 23.5878 9.344C24.0198 9.816 24.2358 10.452 24.2358 11.252C24.2358 12.084 24.0038 12.776 23.5398 13.328C23.0838 13.872 22.3958 14.144 21.4758 14.144C20.7478 14.144 20.1438 13.956 19.6638 13.58C19.1838 13.204 18.8918 12.68 18.7878 12.008H19.9758C20.1838 12.792 20.6958 13.184 21.5118 13.184C22.0078 13.184 22.3838 13.02 22.6398 12.692C22.9038 12.364 23.0358 11.912 23.0358 11.336C23.0358 10.192 22.5478 9.62 21.5718 9.62C21.1398 9.62 20.8078 9.704 20.5758 9.872C20.3518 10.032 20.1678 10.276 20.0238 10.604L18.9318 10.412C19.1398 9.476 19.3598 8.04 19.5918 6.104H24.0078Z" fill="white"/>
</g>
<defs>
<clipPath id="clip0_268_1777">
<rect width="32" height="20" fill="white"/>
</clipPath>
</defs>
</svg>
